<svg id="图层_1" data-name="图层 1" xmlns="http://www.w3.org/2000/svg" viewBox="0 0 332 332"><title>logo</title><path d="M166,21.11A144.89,144.89,0,1,1,21.11,166,144.89,144.89,0,0,1,166,21.11M166,0a166,166,0,0,0-64.62,319A166,166,0,0,0,230.62,13.05,165,165,0,0,0,166,0Z"/><path d="M128.26,198.94a55.46,55.46,0,0,1-31.72-8.59,73.16,73.16,0,0,1-23.88-24.51L85.8,149.16A92.2,92.2,0,0,0,104.25,169a36.47,36.47,0,0,0,23.25,8.22,51.25,51.25,0,0,0,20.72-4.55,147.16,147.16,0,0,0,19.2-10.11,113,113,0,0,1,20-10.49,57.85,57.85,0,0,1,21.73-4.16q18.45.25,32.35,9.72A67,67,0,0,1,262.94,181l-12.39,17.43a73.77,73.77,0,0,0-17.18-19.71,37.18,37.18,0,0,0-24-8.34,50.79,50.79,0,0,0-20.22,4.55A126.79,126.79,0,0,0,171.21,185a79.31,79.31,0,0,1-20.59,10.11A78.31,78.31,0,0,1,128.26,198.94Z"/><path d="M239.82,238.06H214.29L168.05,101.11h-.76l-46.24,137H95.79L156.18,63.2h23Z"/></svg>