<?xml version="1.0" encoding="utf-8"?>
<!-- Generator: Adobe Illustrator 23.1.1, SVG Export Plug-In . SVG Version: 6.00 Build 0)  -->
<svg version="1.1" id="图层_1" xmlns="http://www.w3.org/2000/svg" xmlns:xlink="http://www.w3.org/1999/xlink" x="0px" y="0px"
	 viewBox="0 0 332 332" style="enable-background:new 0 0 332 332;" xml:space="preserve">
<style type="text/css">
	.st0{fill:#FFFFFF;}
</style>
<title>SVF02</title>
<path class="st0" d="M166,21.1c80,0,144.9,64.9,144.9,144.9S246,310.9,166,310.9S21.1,246,21.1,166S86,21.1,166,21.1
	C166,21.1,166,21.1,166,21.1 M166,0C74.3-0.1-0.1,74.1-0.2,165.8c-0.1,66.9,40,127.3,101.6,153.2c84.5,35.7,181.9-3.9,217.6-88.4
	s-3.9-181.9-88.4-217.6C210.2,4.4,188.2,0,166,0z"/>
<path class="st0" d="M128.3,198.9c-11.2,0.4-22.3-2.6-31.7-8.6c-9.8-6.2-18-14.6-23.9-24.5l13.1-16.7c5.1,7.5,11.4,14.2,18.4,19.8
	c6.6,5.4,14.8,8.3,23.2,8.2c7.1-0.1,14.2-1.6,20.7-4.6c6.6-2.9,13.1-6.3,19.2-10.1c6.3-4.2,13-7.7,20-10.5
	c6.9-2.8,14.3-4.2,21.7-4.2c12.3,0.2,23.1,3.4,32.4,9.7c8.9,6,16.3,14,21.4,23.4l-12.4,17.4c-4.5-7.5-10.3-14.2-17.2-19.7
	c-6.8-5.5-15.3-8.5-24-8.3c-7,0.1-13.9,1.7-20.2,4.6c-6.2,2.9-12.2,6.2-17.9,10.1c-6.3,4.3-13.3,7.8-20.6,10.1
	C143.4,197.5,135.9,198.8,128.3,198.9z"/>
<path class="st0" d="M239.8,238.1h-25.5l-46.2-136.9h-0.8l-46.2,137H95.8l60.4-174.9h23L239.8,238.1z"/>
</svg>
