<svg id="图层_1" data-name="图层 1" xmlns="http://www.w3.org/2000/svg" viewBox="0 0 295.11 104.11"><defs><style>.cls-1{fill:#fff;}</style></defs><title>jie</title><path class="cls-1" d="M320.85,287.19v20.53h9V287.19Zm0,0v20.53h9V287.19Zm0,0v20.53h9V287.19Zm0,0v20.53h9V287.19Zm0,0v20.53h9V287.19Zm0,0v20.53h9V287.19Zm0,0v20.53h9V287.19Zm0,0v20.53h9V287.19Zm0,0v20.53h9V287.19Zm0,0v20.53h9V287.19Zm0,0v20.53h9V287.19Zm0,0v20.53h9V287.19Zm0,0v20.53h9V287.19Zm0,0v20.53h9V287.19Zm0,0v20.53h9V287.19Zm0,0v20.53h9V287.19Zm0,0v20.53h9V287.19Zm0,0v20.53h9V287.19Zm0,0v20.53h9V287.19Zm0,0v20.53h9V287.19Zm0,0v20.53h9V287.19Zm0,0v20.53h9V287.19Zm0,0v20.53h9V287.19ZM383.64,306v18.85H407V306Zm0,0v18.85H407V306Zm-62.79-18.84v20.53h9V287.19Zm0,0v20.53h9V287.19ZM383.64,306v18.85H407V306Zm0,0v18.85H407V306Zm-62.79-18.84v20.53h9V287.19Zm-24.73-41.6a22.73,22.73,0,0,0-22.73,22.73V327a22.73,22.73,0,0,0,22.73,22.73H545.77A22.73,22.73,0,0,0,568.5,327V245.59ZM521.6,265.25l6.75,13.5-2.53,1.41-6.75-13.5Zm-5.9,17.44h16L540.45,265l2.81,1.41-8.16,16.31H545v2.81H515.7Zm27.56,19.13v3.09H517.67v-3.09Zm-235.63,14.9h-3.94l-.84-2.81h3.94q4.77.84,4.21-6.19a21.52,21.52,0,0,0-5.06-14.9L310.72,272h-9.28v58.5h-3.09V269.19h15.47V272L309,292.25a24.44,24.44,0,0,1,5.06,15.47Q314.66,317.58,307.63,316.72Zm39.94-43.59h-5.35v52q.28,4.21-4.22,3.94h-5.9l-.85-3.1h5.63c1.87.19,2.71-.56,2.53-2.25V273.13H316.07V270h31.5ZM318,310.82V284.1h14.62v26.72Zm47.88,18.84-2.81-.84,6.75-25.6,3.09.56ZM371,296.47l-9.84-10.12,2-2,10.12,9.84ZM372.67,279l-9.28-9.84,2-2.25,9.56,9.84Zm37.41,48.66H380.55V303.22h29.53ZM414,278.75H396.58v11.82H411.2v2.81H379.42v-2.81h14.35V278.75h-16.6v-2.81h16.6V265h2.81v11H414Zm65.32,12.66h-34q-.57,1.41-1.69,4.5c-.94,2.63-1.59,4.41-2,5.34h32.06v3.1l-14.34,17.43L471.18,328l-1.4,2.81L436,312.5l1.4-2.53,19.13,10.41,12.94-16H438.56v-3.1q.84-2,2.81-7.31c.38-1.12.66-2,.84-2.53H429v-3.09h14.06a47.48,47.48,0,0,0,2-6.47,25.34,25.34,0,0,0,1.12-3.66h-13.5v-2.81H447q.84-2.81,2.25-8.72a8.29,8.29,0,0,1,.56-2l2.81.84q-1.12,4.79-2.53,9.85H476v2.81H449.25q-1.41,5.07-3.1,10.13h33.19Zm27.36,38.81h-2.82V292.53a98.49,98.49,0,0,1-7.59,18.57l-2.53-1.41a102.37,102.37,0,0,0,9.84-27.56h-8.15v-2.81h8.43V264.69h2.82v14.63h7.87v2.81H506.7v11l2-1.41,7.59,9.56-2.53,2-7-9.28ZM546.91,326H513.17v-3.09h33.74ZM407,306H383.64v18.85H407Zm-86.13,1.69h9V287.19h-9Zm0-20.53v20.53h9V287.19ZM383.64,306v18.85H407V306Zm0,0v18.85H407V306Zm-62.79-18.84v20.53h9V287.19Zm0,0v20.53h9V287.19ZM383.64,306v18.85H407V306Zm0,0v18.85H407V306Zm-62.79-18.84v20.53h9V287.19Zm0,0v20.53h9V287.19Zm0,0v20.53h9V287.19Zm0,0v20.53h9V287.19Zm0,0v20.53h9V287.19Zm0,0v20.53h9V287.19Zm0,0v20.53h9V287.19Zm0,0v20.53h9V287.19Zm0,0v20.53h9V287.19Zm0,0v20.53h9V287.19Zm0,0v20.53h9V287.19Zm0,0v20.53h9V287.19Zm0,0v20.53h9V287.19Zm0,0v20.53h9V287.19Zm0,0v20.53h9V287.19Zm0,0v20.53h9V287.19Zm0,0v20.53h9V287.19Zm0,0v20.53h9V287.19Zm0,0v20.53h9V287.19Zm0,0v20.53h9V287.19Zm0,0v20.53h9V287.19Z" transform="translate(-273.39 -245.59)"/></svg>