<svg id="图层_1" data-name="图层 1" xmlns="http://www.w3.org/2000/svg" viewBox="0 0 400.9 98.27"><title>xdk_black</title><path d="M361.27,245.12v98.27H603.79V245.12Zm47.32,21H435V272H408.59Zm-9.84,25v35.72h-6.19v-27a37.85,37.85,0,0,1-4.22,5.06l-4.5-4.22q7.88-8.16,14.34-21.66l5.63,2.53Q401.85,285.78,398.75,291.12Zm-9.85-8.72L385,278.18A113.77,113.77,0,0,0,398.75,261l5.06,3.1A82.21,82.21,0,0,1,388.9,282.4Zm48.38,9.28h-7.6V319.8q.29,5.91-5.9,5.63H415.9l-1.68-5.91h7.31c1.5.19,2.15-.46,2-2V291.68H404.37v-6.19h32.91ZM473.11,319l8.71-18,5.35,2.53-8.72,18Zm22.78,1.41q.27,5.63-6.19,5.34h-6.19l-1.4-5.91h5.34c1.69.19,2.43-.46,2.25-2v-20H477v-2L473.11,299l-3.66-5.06v33.19h-5.63V295.9c-.56,1.12-1.4,3-2.53,5.62-1.12,2.44-2,4.32-2.53,5.63L454,304.34a101.59,101.59,0,0,0,9.56-24.19h-6.75v-5.91h7V261.3h5.63v12.94h5.62v5.91h-5.62v9.56l2.25-2,5.34,7.31v-3.37q2-4.21,5.91-14.91h-6.47v-6.18h8.72a36.29,36.29,0,0,0,2-5.63,32,32,0,0,1,1.4-3.66L494.2,263c-.75,2.44-1.6,5-2.53,7.6H508v6.18H489.42q-3.94,10.69-5.63,14.91h5.91V281h6.19v10.69h11v6.19h-11Zm9.56,1.12-8.16-18.28,5.63-2.25,7.87,18.28Zm74.36-48.09H554.22l5.62,2a16.45,16.45,0,0,0-1.4,3.09l-.85,2.53h20.25v5.63H554.78c-.56,1.12-1.41,2.91-2.53,5.34L549.72,297H559v-7.59h5.9V297h11.82v5.91H564.9v7h14.91v5.63H564.9v11.53H559V315.59H539.59V310H559v-7H543V297a108.35,108.35,0,0,0,5.34-10.4h-6.47V281h9.28a34.1,34.1,0,0,0,1.41-3.37l1.69-4.22H538.75v18.28q1.11,21.66-6.47,35.72l-5.34-2.53q6.46-12.09,5.9-33.19V267.49H554.5V261.3l6.18.85v5.34h19.13Z" transform="translate(-202.89 -245.12)"/><path d="M342,251.12V268.4H257.25V251.12H342m6-6H251.25V274.4H348V245.12Z" transform="translate(-202.89 -245.12)"/><rect x="59.69" y="11.64" width="6" height="6"/><path d="M293.62,285.62V302.9H208.89V285.62h84.73m6-6H202.89V308.9h96.73V279.62Z" transform="translate(-202.89 -245.12)"/><rect x="11.33" y="46.14" width="6" height="6"/><path d="M317.8,320.11v17.28H233.07V320.11H317.8m6-6H227.07v29.28H323.8V314.11Z" transform="translate(-202.89 -245.12)"/><rect x="35.51" y="80.63" width="6" height="6"/></svg>