<svg id="图层_1" data-name="图层 1" xmlns="http://www.w3.org/2000/svg" viewBox="0 0 400.9 98.27"><title>XDK</title><path d="M364.27,340.39V248.12H600.79v92.27Zm165.57-48.71c.36,13.57-1.51,24.23-5.54,31.78l-1.49,2.77,10.76,5.1,1.35-2.5a53.12,53.12,0,0,0,4.16-10.24H556v11.53h11.9V318.59h14.91V307H567.9v-1h11.82V294H567.9v-4.4h12.94V278h-19a6.27,6.27,0,0,1,.47-.94l.44-.65h20V264.49H563.68v-5l-12.18-1.67v6.63H529.84Zm-69,38.44h11.63V322l7.41,3.5.34-.71.94,3.95h9.17c2.87,0,5.1-.8,6.6-2.38a7.9,7.9,0,0,0,2-6v-6.15l5,11.25,10.83-4.57-8.59-20h3.71V288.68h-11v-8.91H511V267.59h-15.1c.43-1.3.83-2.53,1.19-3.72L498,261l-11-3.3-1.11,2.3a33.8,33.8,0,0,0-1.55,4l0,.12c-.43,1.51-.8,2.63-1.09,3.45h-9.72v3.65h-1V258.3H460.82v12.94h-7v11.91h5.83a101,101,0,0,1-8.27,19.75L450,305.45l10.22,6,.64-1.49Zm-71.26-.28h12.19V294.68H420.5v21.84H410.25l3.39,11.91h10.67a7.66,7.66,0,0,0,8.37-8.71V294.68h7.6V282.49h-33.6l1.13-2.43-8.81-4a93.9,93.9,0,0,0,6.59-9.17V275H438v-11.9H407.87l-10.05-6.16-1.59,2.46a111.43,111.43,0,0,1-13.42,16.71l-2,2,7.87,8.46,2.2-2c.67-.6,1.34-1.22,2-1.87a72.56,72.56,0,0,1-11.23,15.84l-2.11,2.19,8.84,8.29,1.15-1.16Zm94.5-13,2.64-5.46v5.46Zm-11.61-13.6.06.08,3.07-2.41h2.95l-6.08,12.57ZM541.36,307c0-.34.07-.69.11-1H556v1ZM554.58,294l.4-.81,1-2.2v3Zm-12.83-2.42v-2h1.82c-.58,1.15-1.16,2.28-1.76,3.36Q541.79,292.29,541.75,291.6Zm-69.3-7.92v-.53h4.89c-.7,1.8-1.33,3.35-1.87,4.66Zm5.62-3.91h.56l-.56,1.47ZM541.75,278V276.4h8l0,.1c-.21.56-.4,1.06-.58,1.49Z" transform="translate(-202.89 -245.12)"/><path d="M597.79,251.12v86.27H367.27V251.12H597.79m-211.66,37.1a60.83,60.83,0,0,1-6.6,8.29l-4.23,4.38,4.44,4.17,4.5,4.22,2.32,2.18v21.38h18.19V297.68H417.5v15.84H406.28l2.17,7.64,1.68,5.91,1.24,4.36h12.94a10.62,10.62,0,0,0,11.37-11.77v-22h7.6V279.49H411.39l.42-.92-1.28-.58H441v-17.9H408.72L407,259l-5.06-3.1-5-3.06-3.18,4.92A107.79,107.79,0,0,1,380.65,274l-3.94,4.1,3.87,4.16,3.93,4.22,1.62,1.73M481,264.59h-5.58V255.3H457.82v12.94h-7v17.91h4.72a99.38,99.38,0,0,1-6.79,15.31l-2.79,5.1,5,2.95,4.78,2.81,2.1,1.24v19.56h17.63v-6.41l.43.2,2,.93.92,3.87h11.54c3.73,0,6.68-1.11,8.78-3.31a9.76,9.76,0,0,0,1.74-2.55l1.54,3.44,5.41-2.28,5.34-2.25,5.57-2.35-2.39-5.55-5.59-13h2.15V285.68h-11v-2.91H514V264.59H500l1.72-5.61-5.78-1.74-5.63-1.69-4.89-1.46-2.23,4.58a38.24,38.24,0,0,0-1.7,4.4l0,.12,0,.12c-.13.47-.26.9-.37,1.28m67.47-3.1H526.84v30.35c.35,13-1.4,23.12-5.19,30.2l-3,5.56,5.69,2.69,5.34,2.53,5.15,2.44,2.7-5a53.9,53.9,0,0,0,3.72-8.66H553v11.53h17.9V321.59h14.91V304h-3.09V292.62h1.12V279.4h2V261.49H566.68v-4.57l-5.18-.71-6.18-.85-6.82-.94v7.07m55.29-16.37H361.27v98.27H603.79V245.12ZM388.9,282.4,385,278.18A113.77,113.77,0,0,0,398.75,261l5.06,3.1A82.21,82.21,0,0,1,388.9,282.4Zm143.38,45-5.34-2.53q6.46-12.09,5.9-33.19V267.49H554.5V261.3l6.18.85v5.34h19.13v5.91H554.22l5.62,2a16.45,16.45,0,0,0-1.4,3.09l-.85,2.53h20.25v5.63H554.78c-.56,1.12-1.41,2.91-2.53,5.34L549.72,297H559v-7.59h5.9V297h11.82v5.91H564.9v7h14.91v5.63H564.9v11.53H559V315.59H539.59V310H559v-7H543V297a108.35,108.35,0,0,0,5.34-10.4h-6.47V281h9.28a34.1,34.1,0,0,0,1.41-3.37l1.69-4.22H538.75v18.28q1.11,21.66-6.47,35.72Zm-55.8-50.63v-6.18h8.72a36.29,36.29,0,0,0,2-5.63,32,32,0,0,1,1.4-3.66L494.2,263c-.75,2.44-1.6,5-2.53,7.6H508v6.18H489.42q-3.94,10.69-5.63,14.91h5.91V281h6.19v10.69h11v6.19h-11v22.5c.17,3.57-1.68,5.35-5.58,5.35h-6.8l-1.4-5.91h5.34l.54,0c1.31,0,1.87-.66,1.71-2v-20H477v-2L473.11,299l-3.66-5.06v33.19h-5.63V295.9c-.56,1.12-1.4,3-2.53,5.62-1.12,2.44-2,4.32-2.53,5.63L454,304.34a101.59,101.59,0,0,0,9.56-24.19h-6.75v-5.91h7V261.3h5.63v12.94h5.62v5.91h-5.62v9.56l2.25-2,5.34,7.31v-3.37q2-4.21,5.91-14.91ZM408.59,272v-5.9H435V272ZM388.34,304.9l-4.5-4.22q7.88-8.16,14.34-21.66l5.63,2.53q-2,4.23-5.06,9.57v35.72h-6.19v-27a37.85,37.85,0,0,1-4.22,5.06Zm16-13.22v-6.19h32.91v6.19h-7.6V319.8c.18,3.77-1.61,5.64-5.37,5.64H415.9l-1.68-5.91h7.31l.48,0c1.16,0,1.65-.66,1.49-2V291.68Zm101.08,29.81-8.16-18.28,5.63-2.25,7.87,18.28-5.34,2.25Zm-27,0L473.11,319l8.71-18,5.35,2.53-8.72,18Z" transform="translate(-202.89 -245.12)"/><path d="M342,251.12V268.4H257.25V251.12H342m6-6H251.25V274.4H348V245.12Z" transform="translate(-202.89 -245.12)"/><rect x="59.69" y="11.64" width="6" height="6"/><path d="M293.62,285.62V302.9H208.89V285.62h84.73m6-6H202.89V308.9h96.73V279.62Z" transform="translate(-202.89 -245.12)"/><rect x="11.33" y="46.14" width="6" height="6"/><path d="M317.8,320.11v17.28H233.07V320.11H317.8m6-6H227.07v29.28H323.8V314.11Z" transform="translate(-202.89 -245.12)"/><rect x="35.51" y="80.63" width="6" height="6"/></svg>